ply
format ascii 1.0
comment Created by Blender 2.69 (sub 0) - www.blender.org, source file: 'cone.blend'
element vertex 72
property float x
property float y
property float z
property float nx
property float ny
property float nz
property float s
property float t
element face 62
property list uchar uint vertex_indices
end_header
-0.382682 0.923880 -1.000000 -0.330668 0.798334 -0.503281 0.757901 0.002832
0.000000 0.000000 1.000000 0.000000 0.000000 1.000000 0.757901 0.488248
-0.195089 0.980786 -1.000000 -0.168554 0.847499 -0.503281 0.724204 0.000000
0.000000 1.000000 -1.000000 0.000000 0.864101 -0.503281 0.686565 0.001961
0.195090 0.980785 -1.000000 0.168554 0.847499 -0.503281 0.646429 0.008638
-0.555569 0.831470 -1.000000 -0.480056 0.718467 -0.503281 0.170735 0.519337
0.000000 0.000000 1.000000 0.000000 0.000000 1.000000 0.438775 0.928820
-0.382682 0.923880 -1.000000 -0.330668 0.798334 -0.503281 0.145589 0.541947
-0.707106 0.707108 -1.000000 -0.611011 0.611011 -0.503281 0.201918 0.498166
-0.831469 0.555571 -1.000000 -0.718467 0.480056 -0.503281 0.237939 0.479246
-0.923879 0.382684 -1.000000 -0.798334 0.330668 -0.503281 0.277415 0.463305
-0.980785 0.195091 -1.000000 -0.847499 0.168554 -0.503281 0.318829 0.450956
-1.000000 0.000001 -1.000000 -0.864101 0.000000 -0.503281 0.360589 0.442673
-0.980785 -0.195089 -1.000000 -0.847499 -0.168554 -0.503281 0.401089 0.438775
-0.923880 -0.382683 -1.000000 -0.798334 -0.330668 -0.503281 0.438775 0.439410
-0.831470 -0.555570 -1.000000 -0.718467 -0.480056 -0.503281 0.763143 0.547639
0.000000 0.000000 1.000000 0.000000 0.000000 1.000000 1.000000 0.978293
-0.923880 -0.382683 -1.000000 -0.798334 -0.330668 -0.503281 0.731960 0.568810
-0.707107 -0.707106 -1.000000 -0.611011 -0.611011 -0.503281 0.799165 0.528719
-0.555571 -0.831469 -1.000000 -0.480056 -0.718467 -0.503281 0.838641 0.512779
-0.382684 -0.923879 -1.000000 -0.330668 -0.798334 -0.503281 0.880054 0.500430
-0.195091 -0.980785 -1.000000 -0.168554 -0.847499 -0.503281 0.921814 0.492147
-0.000000 -1.000000 -1.000000 0.000000 -0.864101 -0.503281 0.962315 0.488248
0.195090 -0.980785 -1.000000 0.168554 -0.847499 -0.503281 1.000000 0.488884
0.382683 -0.923880 -1.000000 0.330668 -0.798334 -0.503281 0.694275 0.978293
0.000000 0.000000 1.000000 0.000000 0.000000 1.000000 0.731960 0.488248
0.195090 -0.980785 -1.000000 0.168554 -0.847499 -0.503281 0.731960 0.977657
0.555570 -0.831470 -1.000000 0.480056 -0.718467 -0.503281 0.653774 0.974394
0.707107 -0.707107 -1.000000 0.611011 -0.611011 -0.503281 0.612014 0.966111
0.831470 -0.555570 -1.000000 0.718467 -0.480056 -0.503281 0.570601 0.953762
0.923880 -0.382683 -1.000000 0.798334 -0.330668 -0.503281 0.531125 0.937822
0.980785 -0.195090 -1.000000 0.847499 -0.168554 -0.503281 0.495103 0.918902
1.000000 0.000000 -1.000000 0.864101 0.000000 -0.503281 0.463920 0.897731
0.980785 0.195090 -1.000000 0.847499 0.168554 -0.503281 0.438775 0.875121
0.923880 0.382683 -1.000000 0.798334 0.330668 -0.503281 0.462304 0.098192
0.980785 0.195090 -1.000000 0.847499 0.168554 -0.503281 0.438775 0.122479
0.831470 0.555570 -1.000000 0.718467 0.480056 -0.503281 0.491955 0.074924
0.707107 0.707107 -1.000000 0.611011 0.611011 -0.503281 0.526589 0.053569
0.555570 0.831470 -1.000000 0.480056 0.718467 -0.503281 0.564874 0.034948
0.382683 0.923880 -1.000000 0.330668 0.798334 -0.503281 0.605339 0.019777
0.000000 1.000000 -1.000000 0.000000 0.864101 -0.503281 0.240995 0.438775
0.195090 0.980785 -1.000000 0.168554 0.847499 -0.503281 0.197780 0.438775
-0.195089 0.980786 -1.000000 -0.168554 0.847499 -0.503281 0.283380 0.430344
-0.382682 0.923880 -1.000000 -0.330668 0.798334 -0.503281 0.323306 0.413806
0.382683 0.923880 -1.000000 0.330668 0.798334 -0.503281 0.155395 0.430344
-0.555569 0.831470 -1.000000 -0.480056 0.718467 -0.503281 0.359239 0.389797
0.555570 0.831470 -1.000000 0.480056 0.718467 -0.503281 0.115469 0.413806
-0.707106 0.707108 -1.000000 -0.611011 0.611011 -0.503281 0.389797 0.359239
0.707107 0.707107 -1.000000 0.611011 0.611011 -0.503281 0.079536 0.389797
-0.831469 0.555571 -1.000000 -0.718467 0.480056 -0.503281 0.413806 0.323306
0.831470 0.555570 -1.000000 0.718467 0.480056 -0.503281 0.048978 0.359239
-0.923879 0.382684 -1.000000 -0.798334 0.330668 -0.503281 0.430344 0.283380
0.923880 0.382683 -1.000000 0.798334 0.330668 -0.503281 0.024969 0.323306
-0.980785 0.195091 -1.000000 -0.847499 0.168554 -0.503281 0.438775 0.240995
0.980785 0.195090 -1.000000 0.847499 0.168554 -0.503281 0.008431 0.283380
-1.000000 0.000001 -1.000000 -0.864101 0.000000 -0.503281 0.438775 0.197780
1.000000 0.000000 -1.000000 0.864101 0.000000 -0.503281 0.000000 0.240995
-0.980785 -0.195089 -1.000000 -0.847499 -0.168554 -0.503281 0.430344 0.155394
0.980785 -0.195090 -1.000000 0.847499 -0.168554 -0.503281 0.000000 0.197780
-0.923880 -0.382683 -1.000000 -0.798334 -0.330668 -0.503281 0.413806 0.115469
0.923880 -0.382683 -1.000000 0.798334 -0.330668 -0.503281 0.008431 0.155395
-0.831470 -0.555570 -1.000000 -0.718467 -0.480056 -0.503281 0.389797 0.079536
0.831470 -0.555570 -1.000000 0.718467 -0.480056 -0.503281 0.024969 0.115469
-0.707107 -0.707106 -1.000000 -0.611011 -0.611011 -0.503281 0.359239 0.048978
0.707107 -0.707107 -1.000000 0.611011 -0.611011 -0.503281 0.048978 0.079536
-0.555571 -0.831469 -1.000000 -0.480056 -0.718467 -0.503281 0.323306 0.024969
0.555570 -0.831470 -1.000000 0.480056 -0.718467 -0.503281 0.079536 0.048978
-0.382684 -0.923879 -1.000000 -0.330668 -0.798334 -0.503281 0.283380 0.008431
0.382683 -0.923880 -1.000000 0.330668 -0.798334 -0.503281 0.115468 0.024969
-0.195091 -0.980785 -1.000000 -0.168554 -0.847499 -0.503281 0.240995 0.000000
0.195090 -0.980785 -1.000000 0.168554 -0.847499 -0.503281 0.155394 0.008431
-0.000000 -1.000000 -1.000000 0.000000 -0.864101 -0.503281 0.197780 0.000000
3 0 1 2
3 3 1 4
3 5 6 7
3 8 6 5
3 9 6 8
3 10 6 9
3 11 6 10
3 12 6 11
3 13 6 12
3 14 6 13
3 15 16 17
3 18 16 15
3 19 16 18
3 20 16 19
3 21 16 20
3 22 16 21
3 23 16 22
3 24 25 26
3 27 25 24
3 28 25 27
3 29 25 28
3 30 25 29
3 31 25 30
3 32 25 31
3 33 25 32
3 34 1 35
3 36 1 34
3 37 1 36
3 38 1 37
3 39 1 38
3 1 3 2
3 4 1 39
3 40 41 42
3 41 43 42
3 41 44 43
3 44 45 43
3 44 46 45
3 46 47 45
3 46 48 47
3 48 49 47
3 48 50 49
3 50 51 49
3 50 52 51
3 52 53 51
3 52 54 53
3 54 55 53
3 54 56 55
3 56 57 55
3 56 58 57
3 58 59 57
3 58 60 59
3 60 61 59
3 60 62 61
3 62 63 61
3 62 64 63
3 64 65 63
3 64 66 65
3 66 67 65
3 66 68 67
3 68 69 67
3 68 70 69
3 70 71 69
