# Blender v2.69 (sub 0) OBJ File: ''
# www.blender.org
v 0.000000 -4.000000 -4.000000
v 0.780361 -4.000000 -3.923141
v 1.530734 -4.000000 -3.695518
v 2.222281 -4.000000 -3.325878
v 2.828427 -4.000000 -2.828427
v 3.325879 -4.000000 -2.222281
v 3.695518 -4.000000 -1.530734
v 3.923141 -4.000000 -0.780361
v 4.000000 -4.000000 -0.000000
v 0.000000 4.000000 0.000000
v 3.923141 -4.000000 0.780361
v 3.695518 -4.000000 1.530733
v 3.325879 -4.000000 2.222281
v 2.828427 -4.000000 2.828427
v 2.222281 -4.000000 3.325879
v 1.530733 -4.000000 3.695518
v 0.780360 -4.000000 3.923141
v -0.000001 -4.000000 4.000000
v -0.780363 -4.000000 3.923141
v -1.530735 -4.000000 3.695517
v -2.222283 -4.000000 3.325877
v -2.828429 -4.000000 2.828425
v -3.325880 -4.000000 2.222279
v -3.695519 -4.000000 1.530731
v -3.923142 -4.000000 0.780358
v -4.000000 -4.000000 -0.000004
v -3.923140 -4.000000 -0.780365
v -3.695516 -4.000000 -1.530738
v -3.325876 -4.000000 -2.222285
v -2.828424 -4.000000 -2.828431
v -2.222276 -4.000000 -3.325881
v -1.530728 -4.000000 -3.695520
v -0.780355 -4.000000 -3.923142
vt 0.757901 0.002832
vt 0.757901 0.488248
vt 0.724204 0.000000
vt 0.686565 0.001961
vt 0.646429 0.008638
vt 0.170735 0.519337
vt 0.438775 0.928820
vt 0.145589 0.541947
vt 0.201918 0.498166
vt 0.237939 0.479246
vt 0.277415 0.463305
vt 0.318829 0.450956
vt 0.360589 0.442673
vt 0.401089 0.438775
vt 0.438775 0.439410
vt 0.763143 0.547639
vt 1.000000 0.978293
vt 0.731960 0.568810
vt 0.799165 0.528719
vt 0.838641 0.512779
vt 0.880054 0.500430
vt 0.921814 0.492147
vt 0.962315 0.488248
vt 1.000000 0.488884
vt 0.694275 0.978293
vt 0.731960 0.488248
vt 0.731960 0.977657
vt 0.653774 0.974394
vt 0.612014 0.966111
vt 0.570601 0.953762
vt 0.531125 0.937822
vt 0.495103 0.918902
vt 0.463920 0.897731
vt 0.438775 0.875121
vt 0.462304 0.098192
vt 0.438775 0.122479
vt 0.491955 0.074924
vt 0.526589 0.053569
vt 0.564874 0.034948
vt 0.605339 0.019777
vt 0.240995 0.438775
vt 0.197780 0.438775
vt 0.283380 0.430344
vt 0.155395 0.430344
vt 0.115469 0.413806
vt 0.079536 0.389797
vt 0.048978 0.359239
vt 0.024969 0.323306
vt 0.008431 0.283380
vt 0.000000 0.240995
vt 0.000000 0.197780
vt 0.008431 0.155395
vt 0.024969 0.115469
vt 0.048978 0.079536
vt 0.430344 0.155394
vt 0.389797 0.079536
vt 0.413806 0.115469
vt 0.359239 0.048978
vt 0.323306 0.413806
vt 0.079536 0.048978
vt 0.115468 0.024969
vt 0.155394 0.008431
vt 0.240995 0.000000
vt 0.197780 0.000000
vt 0.283380 0.008431
vt 0.323306 0.024969
vt 0.438775 0.240995
vt 0.438775 0.197780
vt 0.359239 0.389797
vt 0.389797 0.359239
vt 0.430344 0.283380
vt 0.413806 0.323306
vn -0.330668 -0.503281 -0.798334
vn 0.000000 1.000000 0.000000
vn -0.168554 -0.503281 -0.847499
vn 0.000000 -0.503281 -0.864101
vn 0.168554 -0.503281 -0.847499
vn -0.480056 -0.503281 -0.718467
vn -0.611011 -0.503281 -0.611011
vn -0.718467 -0.503281 -0.480056
vn -0.798334 -0.503281 -0.330668
vn -0.847499 -0.503281 -0.168554
vn -0.864101 -0.503281 0.000000
vn -0.847499 -0.503281 0.168554
vn -0.798334 -0.503281 0.330668
vn -0.718467 -0.503281 0.480056
vn -0.611011 -0.503281 0.611011
vn -0.480056 -0.503281 0.718467
vn -0.330668 -0.503281 0.798334
vn -0.168554 -0.503281 0.847499
vn 0.000000 -0.503281 0.864101
vn 0.168554 -0.503281 0.847499
vn 0.330668 -0.503281 0.798334
vn 0.480056 -0.503281 0.718467
vn 0.611011 -0.503281 0.611011
vn 0.718467 -0.503281 0.480056
vn 0.798334 -0.503281 0.330668
vn 0.847499 -0.503281 0.168554
vn 0.864101 -0.503281 0.000000
vn 0.847499 -0.503281 -0.168554
vn 0.798334 -0.503281 -0.330668
vn 0.718467 -0.503281 -0.480056
vn 0.611011 -0.503281 -0.611011
vn 0.480056 -0.503281 -0.718467
vn 0.330668 -0.503281 -0.798334
s 1
f 32/1/1 10/2/2 33/3/3
f 1/4/4 10/2/2 2/5/5
f 31/6/6 10/7/2 32/8/1
f 30/9/7 10/7/2 31/6/6
f 29/10/8 10/7/2 30/9/7
f 28/11/9 10/7/2 29/10/8
f 27/12/10 10/7/2 28/11/9
f 26/13/11 10/7/2 27/12/10
f 25/14/12 10/7/2 26/13/11
f 24/15/13 10/7/2 25/14/12
f 23/16/14 10/17/2 24/18/13
f 22/19/15 10/17/2 23/16/14
f 21/20/16 10/17/2 22/19/15
f 20/21/17 10/17/2 21/20/16
f 19/22/18 10/17/2 20/21/17
f 18/23/19 10/17/2 19/22/18
f 17/24/20 10/17/2 18/23/19
f 16/25/21 10/26/2 17/27/20
f 15/28/22 10/26/2 16/25/21
f 14/29/23 10/26/2 15/28/22
f 13/30/24 10/26/2 14/29/23
f 12/31/25 10/26/2 13/30/24
f 11/32/26 10/26/2 12/31/25
f 9/33/27 10/26/2 11/32/26
f 8/34/28 10/26/2 9/33/27
f 7/35/29 10/2/2 8/36/28
f 6/37/30 10/2/2 7/35/29
f 5/38/31 10/2/2 6/37/30
f 4/39/32 10/2/2 5/38/31
f 3/40/33 10/2/2 4/39/32
f 33/3/3 10/2/2 1/4/4
f 2/5/5 10/2/2 3/40/33
f 1/41/4 2/42/5 33/43/3
f 2/42/5 3/44/33 33/43/3
f 3/44/33 4/45/32 33/43/3
f 4/45/32 5/46/31 33/43/3
f 5/46/31 6/47/30 33/43/3
f 6/47/30 7/48/29 33/43/3
f 7/48/29 8/49/28 33/43/3
f 8/49/28 9/50/27 33/43/3
f 9/50/27 11/51/26 33/43/3
f 11/51/26 12/52/25 33/43/3
f 12/52/25 13/53/24 33/43/3
f 13/53/24 14/54/23 33/43/3
f 25/55/12 23/56/14 24/57/13
f 25/55/12 22/58/15 23/56/14
f 33/43/3 14/54/23 32/59/1
f 14/54/23 15/60/22 32/59/1
f 15/60/22 16/61/21 17/62/20
f 32/59/1 15/60/22 17/62/20
f 19/63/18 17/62/20 18/64/19
f 32/59/1 17/62/20 19/63/18
f 22/58/15 20/65/17 21/66/16
f 25/55/12 20/65/17 22/58/15
f 25/55/12 19/63/18 20/65/17
f 27/67/10 25/55/12 26/68/11
f 27/67/10 19/63/18 25/55/12
f 31/69/6 32/59/1 30/70/7
f 32/59/1 19/63/18 30/70/7
f 19/63/18 27/67/10 30/70/7
f 27/67/10 28/71/9 30/70/7
f 28/71/9 29/72/8 30/70/7
