# Blender v2.69 (sub 0) OBJ File: 'cube.blend'
# www.blender.org
v 4.000000 -4.000000 -4.000000
v 4.000000 -4.000000 4.000000
v -4.000000 -4.000000 3.999999
v -3.999999 -4.000000 -4.000001
v 4.000002 4.000000 -3.999998
v 3.999997 4.000000 4.000002
v -4.000001 4.000000 3.999999
v -4.000000 4.000000 -4.000000
vt 0.666667 0.333333
vt 1.000000 0.333333
vt 0.666667 0.666667
vt 0.000000 1.000000
vt 0.000000 0.666667
vt 0.333333 1.000000
vt 0.333333 0.666667
vt 0.333333 0.333333
vt 0.333333 0.000000
vt 0.000000 0.000000
vt 0.000000 0.333333
vt 1.000000 0.666667
vt 0.666667 0.000000
vn 0.577349 -0.577349 -0.577349
vn 0.577349 -0.577349 0.577349
vn -0.577349 -0.577349 -0.577349
vn 0.577349 0.577349 -0.577349
vn -0.577349 0.577349 -0.577349
vn 0.577349 0.577349 0.577349
vn -0.577349 -0.577349 0.577349
vn -0.577349 0.577349 0.577349
s 1
f 1/1/1 2/2/2 4/3/3
f 5/4/4 8/5/5 6/6/6
f 1/7/1 5/5/4 2/8/2
f 2/8/2 6/9/6 3/1/7
f 3/8/7 7/1/8 4/7/3
f 5/10/4 1/9/1 8/11/5
f 2/2/2 3/12/7 4/3/3
f 8/5/5 7/7/8 6/6/6
f 5/5/4 6/11/6 2/8/2
f 6/9/6 7/13/8 3/1/7
f 7/1/8 8/3/5 4/7/3
f 1/9/1 4/8/3 8/11/5
