# Blender v2.69 (sub 0) OBJ File: ''
# www.blender.org
v 0.000000 -4.000000 -4.000000
v 0.000000 4.000000 -4.000000
v 0.780361 -4.000000 -3.923141
v 0.780361 4.000000 -3.923141
v 1.530734 -4.000000 -3.695518
v 1.530734 4.000000 -3.695518
v 2.222281 -4.000000 -3.325878
v 2.222281 4.000000 -3.325878
v 2.828427 -4.000000 -2.828427
v 2.828427 4.000000 -2.828427
v 3.325879 -4.000000 -2.222281
v 3.325879 4.000000 -2.222281
v 3.695518 -4.000000 -1.530734
v 3.695518 4.000000 -1.530734
v 3.923141 -4.000000 -0.780361
v 3.923141 4.000000 -0.780361
v 4.000000 -4.000000 -0.000000
v 4.000000 4.000000 -0.000000
v 3.923141 -4.000000 0.780361
v 3.923141 4.000000 0.780361
v 3.695518 -4.000000 1.530733
v 3.695518 4.000000 1.530733
v 3.325879 -4.000000 2.222281
v 3.325879 4.000000 2.222281
v 2.828427 -4.000000 2.828427
v 2.828427 4.000000 2.828427
v 2.222281 -4.000000 3.325879
v 2.222281 4.000000 3.325879
v 1.530733 -4.000000 3.695518
v 1.530733 4.000000 3.695518
v 0.780360 -4.000000 3.923141
v 0.780360 4.000000 3.923141
v -0.000001 -4.000000 4.000000
v -0.000001 4.000000 4.000000
v -0.780363 -4.000000 3.923141
v -0.780363 4.000000 3.923141
v -1.530735 -4.000000 3.695517
v -1.530735 4.000000 3.695517
v -2.222283 -4.000000 3.325877
v -2.222283 4.000000 3.325877
v -2.828429 -4.000000 2.828425
v -2.828429 4.000000 2.828425
v -3.325880 -4.000000 2.222279
v -3.325880 4.000000 2.222279
v -3.695519 -4.000000 1.530731
v -3.695519 4.000000 1.530731
v -3.923142 -4.000000 0.780358
v -3.923142 4.000000 0.780358
v -4.000000 -4.000000 -0.000004
v -4.000000 4.000000 -0.000004
v -3.923140 -4.000000 -0.780365
v -3.923140 4.000000 -0.780365
v -3.695516 -4.000000 -1.530738
v -3.695516 4.000000 -1.530738
v -3.325876 -4.000000 -2.222285
v -3.325876 4.000000 -2.222285
v -2.828424 -4.000000 -2.828431
v -2.828424 4.000000 -2.828431
v -2.222276 -4.000000 -3.325881
v -2.222276 4.000000 -3.325881
v -1.530728 -4.000000 -3.695520
v -1.530728 4.000000 -3.695520
v -0.780355 -4.000000 -3.923142
v -0.780355 4.000000 -3.923142
vt 0.758747 0.544079
vt 0.378458 0.544079
vt 0.758747 0.506804
vt 0.378458 0.506804
vt 0.758747 0.470246
vt 0.378458 0.470246
vt 0.758747 0.435808
vt 0.378458 0.435808
vt 0.758747 0.404815
vt 0.378458 0.404815
vt 0.758747 0.378458
vt 1.000000 0.378458
vt 1.000000 0.758747
vt 0.969007 0.378458
vt 0.969007 0.758747
vt 0.934570 0.378458
vt 0.934570 0.758747
vt 0.898011 0.378458
vt 0.898011 0.758747
vt 0.860736 0.378458
vt 0.860736 0.758747
vt 0.824178 0.378458
vt 0.824178 0.758747
vt 0.789740 0.378458
vt 0.789740 0.758747
vt 0.758747 0.267610
vt 0.378458 0.267610
vt 0.758747 0.236617
vt 0.378458 0.236617
vt 0.758747 0.202180
vt 0.378458 0.202180
vt 0.758747 0.165621
vt 0.378458 0.165621
vt 0.758747 0.128346
vt 0.378458 0.128346
vt 0.758747 0.091788
vt 0.378458 0.091788
vt 0.758747 0.057350
vt 0.378458 0.057350
vt 0.758747 0.026357
vt 0.378458 0.026357
vt 0.758747 0.000000
vt 0.378458 0.672425
vt 0.758747 0.672425
vt 0.378458 0.703418
vt 0.758747 0.703418
vt 0.378458 0.737856
vt 0.758747 0.737856
vt 0.378458 0.774414
vt 0.758747 0.774414
vt 0.378458 0.811689
vt 0.758747 0.811689
vt 0.378458 0.848248
vt 0.758747 0.848248
vt 0.378458 0.882685
vt 0.758747 0.882685
vt 0.378458 0.913678
vt 0.758747 0.913678
vt 0.378458 0.940036
vt 0.758747 0.646068
vt 0.378458 0.646068
vt 0.758747 0.615075
vt 0.170592 0.378458
vt 0.134033 0.371186
vt 0.207866 0.378458
vt 0.758747 0.580638
vt 0.378458 0.580638
vt 0.378458 0.615075
vt 0.207867 0.756916
vt 0.170592 0.756916
vt 0.244425 0.749644
vt 0.378458 0.378458
vt 0.758747 0.758747
vt 0.378458 0.000000
vt 0.758747 0.940036
vt 0.099596 0.356922
vt 0.068603 0.336213
vt 0.042245 0.309856
vt 0.021537 0.278863
vt 0.007272 0.244425
vt 0.000000 0.207867
vt 0.000000 0.170592
vt 0.007272 0.134033
vt 0.021536 0.099596
vt 0.042245 0.068603
vt 0.068602 0.042245
vt 0.099595 0.021536
vt 0.134033 0.007272
vt 0.170592 0.000000
vt 0.278863 0.021536
vt 0.207866 0.000000
vt 0.244425 0.007272
vt 0.336213 0.068603
vt 0.309855 0.042245
vt 0.356922 0.099595
vt 0.371186 0.134033
vt 0.378458 0.170592
vt 0.378458 0.207866
vt 0.371186 0.244425
vt 0.356922 0.278863
vt 0.336213 0.309855
vt 0.244425 0.371186
vt 0.278863 0.356922
vt 0.309855 0.336213
vt 0.134033 0.749644
vt 0.099596 0.735380
vt 0.068603 0.714671
vt 0.042245 0.688313
vt 0.021536 0.657321
vt 0.007272 0.622883
vt 0.000000 0.586325
vt 0.000000 0.549050
vt 0.007272 0.512491
vt 0.021536 0.478054
vt 0.042245 0.447061
vt 0.371186 0.512491
vt 0.336213 0.447061
vt 0.356922 0.478053
vt 0.309855 0.420703
vt 0.278862 0.735380
vt 0.068602 0.420703
vt 0.099595 0.399994
vt 0.134033 0.385730
vt 0.244425 0.385730
vt 0.278863 0.399994
vt 0.378458 0.586324
vt 0.378458 0.549050
vt 0.309855 0.714671
vt 0.336213 0.688313
vt 0.371186 0.622883
vt 0.356921 0.657321
vn 0.000000 -0.685690 -0.727866
vn 0.000000 0.685690 -0.727866
vn 0.142003 -0.685690 -0.713889
vn 0.142003 0.685690 -0.713889
vn 0.278542 -0.685690 -0.672475
vn 0.278542 0.685690 -0.672475
vn 0.404370 -0.685690 -0.605213
vn 0.404370 0.685690 -0.605213
vn 0.514664 -0.685690 -0.514695
vn 0.514664 0.685690 -0.514664
vn 0.605213 -0.685690 -0.404370
vn 0.605213 0.685690 -0.404370
vn 0.672475 -0.685690 -0.278542
vn 0.672475 0.685690 -0.278542
vn 0.713889 -0.685690 -0.142003
vn 0.713889 0.685690 -0.142003
vn 0.727866 -0.685690 0.000000
vn 0.727866 0.685690 0.000000
vn 0.713889 -0.685690 0.142003
vn 0.713889 0.685690 0.142003
vn 0.672475 -0.685690 0.278542
vn 0.672475 0.685690 0.278542
vn 0.605213 -0.685690 0.404370
vn 0.605213 0.685690 0.404370
vn 0.514664 -0.685690 0.514664
vn 0.514664 0.685690 0.514664
vn 0.404370 -0.685690 0.605213
vn 0.404370 0.685690 0.605213
vn 0.278542 -0.685690 0.672475
vn 0.278542 0.685690 0.672475
vn 0.142003 -0.685690 0.713889
vn 0.142003 0.685690 0.713889
vn 0.000000 -0.685690 0.727866
vn 0.000000 0.685690 0.727866
vn -0.142003 -0.685690 0.713889
vn -0.142003 0.685690 0.713889
vn -0.278542 -0.685690 0.672475
vn -0.278542 0.685690 0.672475
vn -0.404370 -0.685690 0.605213
vn -0.404370 0.685690 0.605213
vn -0.514664 -0.685690 0.514664
vn -0.514664 0.685690 0.514664
vn -0.605213 -0.685690 0.404370
vn -0.605213 0.685690 0.404370
vn -0.672475 -0.685690 0.278542
vn -0.672475 0.685690 0.278542
vn -0.713889 -0.685690 0.142003
vn -0.713889 0.685690 0.142003
vn -0.727866 -0.685690 0.000000
vn -0.727866 0.685690 0.000000
vn -0.713889 -0.685690 -0.142003
vn -0.713889 0.685690 -0.142003
vn -0.672475 -0.685690 -0.278542
vn -0.672475 0.685690 -0.278542
vn -0.605213 -0.685690 -0.404370
vn -0.605213 0.685690 -0.404370
vn -0.514664 -0.685690 -0.514695
vn -0.514664 0.685690 -0.514664
vn -0.404370 -0.685690 -0.605213
vn -0.404370 0.685690 -0.605213
vn -0.278542 -0.685690 -0.672475
vn -0.142003 -0.685690 -0.713889
vn -0.142003 0.685690 -0.713889
vn -0.278542 0.685690 -0.672475
s 1
f 1/1/1 2/2/2 3/3/3
f 3/3/3 4/4/4 5/5/5
f 5/5/5 6/6/6 7/7/7
f 7/7/7 8/8/8 9/9/9
f 9/9/9 10/10/10 11/11/11
f 11/12/11 12/13/12 13/14/13
f 13/14/13 14/15/14 15/16/15
f 15/16/15 16/17/16 17/18/17
f 17/18/17 18/19/18 19/20/19
f 19/20/19 20/21/20 21/22/21
f 21/22/21 22/23/22 23/24/23
f 23/24/23 24/25/24 25/11/25
f 25/26/25 26/27/26 27/28/27
f 27/28/27 28/29/28 29/30/29
f 29/30/29 30/31/30 31/32/31
f 31/32/31 32/33/32 33/34/33
f 33/34/33 34/35/34 35/36/35
f 35/36/35 36/37/36 37/38/37
f 37/38/37 38/39/38 39/40/39
f 39/40/39 40/41/40 41/42/41
f 41/43/41 42/44/42 43/45/43
f 43/45/43 44/46/44 45/47/45
f 45/47/45 46/48/46 47/49/47
f 47/49/47 48/50/48 49/51/49
f 49/51/49 50/52/50 51/53/51
f 51/53/51 52/54/52 53/55/53
f 53/55/53 54/56/54 55/57/55
f 55/57/55 56/58/56 57/59/57
f 57/44/57 58/43/58 59/60/59
f 59/60/59 60/61/60 61/62/61
f 4/63/4 2/64/2 6/65/6
f 63/66/62 64/67/63 1/1/1
f 61/62/61 62/68/64 63/66/62
f 1/69/1 3/70/3 63/71/62
f 2/2/2 4/4/4 3/3/3
f 4/4/4 6/6/6 5/5/5
f 6/6/6 8/8/8 7/7/7
f 8/8/8 10/10/10 9/9/9
f 10/10/10 12/72/12 11/11/11
f 12/13/12 14/15/14 13/14/13
f 14/15/14 16/17/16 15/16/15
f 16/17/16 18/19/18 17/18/17
f 18/19/18 20/21/20 19/20/19
f 20/21/20 22/23/22 21/22/21
f 22/23/22 24/25/24 23/24/23
f 24/25/24 26/73/26 25/11/25
f 26/27/26 28/29/28 27/28/27
f 28/29/28 30/31/30 29/30/29
f 30/31/30 32/33/32 31/32/31
f 32/33/32 34/35/34 33/34/33
f 34/35/34 36/37/36 35/36/35
f 36/37/36 38/39/38 37/38/37
f 38/39/38 40/41/40 39/40/39
f 40/41/40 42/74/42 41/42/41
f 42/44/42 44/46/44 43/45/43
f 44/46/44 46/48/46 45/47/45
f 46/48/46 48/50/48 47/49/47
f 48/50/48 50/52/50 49/51/49
f 50/52/50 52/54/52 51/53/51
f 52/54/52 54/56/54 53/55/53
f 54/56/54 56/58/56 55/57/55
f 56/58/56 58/75/58 57/59/57
f 58/43/58 60/61/60 59/60/59
f 60/61/60 62/68/64 61/62/61
f 2/64/2 64/76/63 6/65/6
f 64/76/63 62/77/64 6/65/6
f 62/77/64 60/78/60 6/65/6
f 60/78/60 58/79/58 6/65/6
f 58/79/58 56/80/56 6/65/6
f 56/80/56 54/81/54 6/65/6
f 54/81/54 52/82/52 6/65/6
f 52/82/52 50/83/50 6/65/6
f 50/83/50 48/84/48 6/65/6
f 48/84/48 46/85/46 6/65/6
f 46/85/46 44/86/44 6/65/6
f 44/86/44 42/87/42 6/65/6
f 42/87/42 40/88/40 38/89/38
f 6/65/6 42/87/42 38/89/38
f 32/90/32 36/91/36 34/92/34
f 32/90/32 38/89/38 36/91/36
f 6/65/6 38/89/38 32/90/32
f 28/93/28 32/90/32 30/94/30
f 26/95/26 32/90/32 28/93/28
f 24/96/24 32/90/32 26/95/26
f 22/97/22 32/90/32 24/96/24
f 20/98/20 32/90/32 22/97/22
f 18/99/18 32/90/32 20/98/20
f 16/100/16 32/90/32 18/99/18
f 14/101/14 32/90/32 16/100/16
f 8/102/8 6/65/6 10/103/10
f 6/65/6 32/90/32 10/103/10
f 32/90/32 14/101/14 12/104/12
f 10/103/10 32/90/32 12/104/12
f 64/67/63 2/2/2 1/1/1
f 62/68/64 64/67/63 63/66/62
f 3/70/3 5/105/5 63/71/62
f 5/105/5 7/106/7 63/71/62
f 7/106/7 9/107/9 63/71/62
f 9/107/9 11/108/11 63/71/62
f 11/108/11 13/109/13 63/71/62
f 13/109/13 15/110/15 63/71/62
f 15/110/15 17/111/17 63/71/62
f 17/111/17 19/112/19 63/71/62
f 19/112/19 21/113/21 63/71/62
f 21/113/21 23/114/23 63/71/62
f 23/114/23 25/115/25 63/71/62
f 47/116/47 43/117/43 45/118/45
f 47/116/47 41/119/41 43/117/43
f 63/71/62 25/115/25 61/120/61
f 25/115/25 27/121/27 61/120/61
f 27/121/27 29/122/29 31/123/31
f 61/120/61 27/121/27 31/123/31
f 35/65/35 31/123/31 33/63/33
f 61/120/61 31/123/31 35/65/35
f 41/119/41 37/124/37 39/125/39
f 47/116/47 37/124/37 41/119/41
f 47/116/47 35/65/35 37/124/37
f 51/126/51 47/116/47 49/127/49
f 51/126/51 35/65/35 47/116/47
f 59/128/59 61/120/61 57/129/57
f 61/120/61 35/65/35 57/129/57
f 35/65/35 51/126/51 57/129/57
f 51/126/51 53/130/53 57/129/57
f 53/130/53 55/131/55 57/129/57
