ply
format ascii 1.0
comment Created by Blender 2.69 (sub 0) - www.blender.org, source file: ''
element vertex 136
property float x
property float y
property float z
property float nx
property float ny
property float nz
property float s
property float t
element face 92
property list uchar uint vertex_indices
end_header
0.000000 1.000000 -1.000000 0.000000 0.727866 -0.685690 0.758747 0.544079
0.000000 1.000000 1.000000 0.000000 0.727866 0.685690 0.378458 0.544079
0.195090 0.980785 1.000000 0.142003 0.713889 0.685690 0.378458 0.506804
0.195090 0.980785 -1.000000 0.142003 0.713889 -0.685690 0.758747 0.506804
0.382683 0.923880 1.000000 0.278542 0.672475 0.685690 0.378458 0.470246
0.382683 0.923880 -1.000000 0.278542 0.672475 -0.685690 0.758747 0.470246
0.555570 0.831470 1.000000 0.404370 0.605213 0.685690 0.378458 0.435808
0.555570 0.831470 -1.000000 0.404370 0.605213 -0.685690 0.758747 0.435808
0.707107 0.707107 1.000000 0.514664 0.514664 0.685690 0.378458 0.404815
0.707107 0.707107 -1.000000 0.514664 0.514664 -0.685690 0.758747 0.404815
0.831470 0.555570 1.000000 0.605213 0.404370 0.685690 0.378458 0.378458
0.831470 0.555570 -1.000000 0.605213 0.404370 -0.685690 0.758747 0.378458
0.831470 0.555570 -1.000000 0.605213 0.404370 -0.685690 1.000000 0.378458
0.831470 0.555570 1.000000 0.605213 0.404370 0.685690 1.000000 0.758747
0.923880 0.382683 1.000000 0.672475 0.278542 0.685690 0.969007 0.758747
0.923880 0.382683 -1.000000 0.672475 0.278542 -0.685690 0.969007 0.378458
0.980785 0.195090 1.000000 0.713889 0.142003 0.685690 0.934570 0.758747
0.980785 0.195090 -1.000000 0.713889 0.142003 -0.685690 0.934570 0.378458
1.000000 0.000000 1.000000 0.727866 0.000000 0.685690 0.898011 0.758747
1.000000 0.000000 -1.000000 0.727866 0.000000 -0.685690 0.898011 0.378458
0.980785 -0.195090 1.000000 0.713889 -0.142003 0.685690 0.860736 0.758747
0.980785 -0.195090 -1.000000 0.713889 -0.142003 -0.685690 0.860736 0.378458
0.923880 -0.382683 1.000000 0.672475 -0.278542 0.685690 0.824178 0.758747
0.923880 -0.382683 -1.000000 0.672475 -0.278542 -0.685690 0.824178 0.378458
0.831470 -0.555570 1.000000 0.605213 -0.404370 0.685690 0.789740 0.758747
0.831470 -0.555570 -1.000000 0.605213 -0.404370 -0.685690 0.789740 0.378458
0.707107 -0.707107 1.000000 0.514664 -0.514664 0.685690 0.758747 0.758747
0.707107 -0.707107 -1.000000 0.514664 -0.514664 -0.685690 0.758747 0.378458
0.707107 -0.707107 -1.000000 0.514664 -0.514664 -0.685690 0.758747 0.267610
0.707107 -0.707107 1.000000 0.514664 -0.514664 0.685690 0.378458 0.267610
0.555570 -0.831470 1.000000 0.404370 -0.605213 0.685690 0.378458 0.236617
0.555570 -0.831470 -1.000000 0.404370 -0.605213 -0.685690 0.758747 0.236617
0.382683 -0.923880 1.000000 0.278542 -0.672475 0.685690 0.378458 0.202180
0.382683 -0.923880 -1.000000 0.278542 -0.672475 -0.685690 0.758747 0.202180
0.195090 -0.980785 1.000000 0.142003 -0.713889 0.685690 0.378458 0.165621
0.195090 -0.980785 -1.000000 0.142003 -0.713889 -0.685690 0.758747 0.165621
-0.000000 -1.000000 1.000000 0.000000 -0.727866 0.685690 0.378458 0.128346
-0.000000 -1.000000 -1.000000 0.000000 -0.727866 -0.685690 0.758747 0.128346
-0.195091 -0.980785 1.000000 -0.142003 -0.713889 0.685690 0.378458 0.091788
-0.195091 -0.980785 -1.000000 -0.142003 -0.713889 -0.685690 0.758747 0.091788
-0.382684 -0.923879 1.000000 -0.278542 -0.672475 0.685690 0.378458 0.057350
-0.382684 -0.923879 -1.000000 -0.278542 -0.672475 -0.685690 0.758747 0.057350
-0.555571 -0.831469 1.000000 -0.404370 -0.605213 0.685690 0.378458 0.026357
-0.555571 -0.831469 -1.000000 -0.404370 -0.605213 -0.685690 0.758747 0.026357
-0.707107 -0.707106 1.000000 -0.514664 -0.514664 0.685690 0.378458 0.000000
-0.707107 -0.707106 -1.000000 -0.514664 -0.514664 -0.685690 0.758747 0.000000
-0.707107 -0.707106 -1.000000 -0.514664 -0.514664 -0.685690 0.378458 0.672425
-0.707107 -0.707106 1.000000 -0.514664 -0.514664 0.685690 0.758747 0.672425
-0.831470 -0.555570 1.000000 -0.605213 -0.404370 0.685690 0.758747 0.703418
-0.831470 -0.555570 -1.000000 -0.605213 -0.404370 -0.685690 0.378458 0.703418
-0.923880 -0.382683 1.000000 -0.672475 -0.278542 0.685690 0.758747 0.737856
-0.923880 -0.382683 -1.000000 -0.672475 -0.278542 -0.685690 0.378458 0.737856
-0.980785 -0.195089 1.000000 -0.713889 -0.142003 0.685690 0.758747 0.774414
-0.980785 -0.195089 -1.000000 -0.713889 -0.142003 -0.685690 0.378458 0.774414
-1.000000 0.000001 1.000000 -0.727866 0.000000 0.685690 0.758747 0.811689
-1.000000 0.000001 -1.000000 -0.727866 0.000000 -0.685690 0.378458 0.811689
-0.980785 0.195091 1.000000 -0.713889 0.142003 0.685690 0.758747 0.848248
-0.980785 0.195091 -1.000000 -0.713889 0.142003 -0.685690 0.378458 0.848248
-0.923879 0.382684 1.000000 -0.672475 0.278542 0.685690 0.758747 0.882685
-0.923879 0.382684 -1.000000 -0.672475 0.278542 -0.685690 0.378458 0.882685
-0.831469 0.555571 1.000000 -0.605213 0.404370 0.685690 0.758747 0.913678
-0.831469 0.555571 -1.000000 -0.605213 0.404370 -0.685690 0.378458 0.913678
-0.707106 0.707108 1.000000 -0.514664 0.514695 0.685690 0.758747 0.940036
-0.707106 0.707108 -1.000000 -0.514664 0.514695 -0.685690 0.378458 0.940036
-0.707106 0.707108 -1.000000 -0.514664 0.514695 -0.685690 0.758747 0.672425
-0.707106 0.707108 1.000000 -0.514664 0.514695 0.685690 0.378458 0.672425
-0.555569 0.831470 1.000000 -0.404370 0.605213 0.685690 0.378458 0.646068
-0.555569 0.831470 -1.000000 -0.404370 0.605213 -0.685690 0.758747 0.646068
-0.382682 0.923880 1.000000 -0.278542 0.672475 0.685690 0.378458 0.615075
-0.382682 0.923880 -1.000000 -0.278542 0.672475 -0.685690 0.758747 0.615075
0.195090 0.980785 1.000000 0.142003 0.713889 0.685690 0.170592 0.378458
0.000000 1.000000 1.000000 0.000000 0.727866 0.685690 0.134033 0.371186
-0.195089 0.980786 1.000000 -0.142003 0.713889 0.685690 0.099596 0.356922
-0.382682 0.923880 1.000000 -0.278542 0.672475 0.685690 0.068603 0.336213
0.382683 0.923880 1.000000 0.278542 0.672475 0.685690 0.207866 0.378458
-0.555569 0.831470 1.000000 -0.404370 0.605213 0.685690 0.042245 0.309856
0.555570 0.831470 1.000000 0.404370 0.605213 0.685690 0.244425 0.371186
-0.707106 0.707108 1.000000 -0.514664 0.514695 0.685690 0.021537 0.278863
0.707107 0.707107 1.000000 0.514664 0.514664 0.685690 0.278863 0.356922
-0.831469 0.555571 1.000000 -0.605213 0.404370 0.685690 0.007272 0.244425
0.831470 0.555570 1.000000 0.605213 0.404370 0.685690 0.309855 0.336213
-0.923879 0.382684 1.000000 -0.672475 0.278542 0.685690 0.000000 0.207867
0.923880 0.382683 1.000000 0.672475 0.278542 0.685690 0.336213 0.309855
-0.980785 0.195091 1.000000 -0.713889 0.142003 0.685690 0.000000 0.170592
0.980785 0.195090 1.000000 0.713889 0.142003 0.685690 0.356922 0.278863
-1.000000 0.000001 1.000000 -0.727866 0.000000 0.685690 0.007272 0.134033
1.000000 0.000000 1.000000 0.727866 0.000000 0.685690 0.371186 0.244425
-0.980785 -0.195089 1.000000 -0.713889 -0.142003 0.685690 0.021536 0.099596
0.980785 -0.195090 1.000000 0.713889 -0.142003 0.685690 0.378458 0.207866
-0.923880 -0.382683 1.000000 -0.672475 -0.278542 0.685690 0.042245 0.068603
0.923880 -0.382683 1.000000 0.672475 -0.278542 0.685690 0.378458 0.170592
-0.831470 -0.555570 1.000000 -0.605213 -0.404370 0.685690 0.068602 0.042245
0.831470 -0.555570 1.000000 0.605213 -0.404370 0.685690 0.371186 0.134033
-0.707107 -0.707106 1.000000 -0.514664 -0.514664 0.685690 0.099595 0.021536
0.707107 -0.707107 1.000000 0.514664 -0.514664 0.685690 0.356922 0.099595
-0.555571 -0.831469 1.000000 -0.404370 -0.605213 0.685690 0.134033 0.007272
0.555570 -0.831470 1.000000 0.404370 -0.605213 0.685690 0.336213 0.068603
-0.382684 -0.923879 1.000000 -0.278542 -0.672475 0.685690 0.170592 0.000000
0.382683 -0.923880 1.000000 0.278542 -0.672475 0.685690 0.309855 0.042245
-0.195091 -0.980785 1.000000 -0.142003 -0.713889 0.685690 0.207866 0.000000
0.195090 -0.980785 1.000000 0.142003 -0.713889 0.685690 0.278863 0.021536
-0.000000 -1.000000 1.000000 0.000000 -0.727866 0.685690 0.244425 0.007272
-0.195089 0.980786 -1.000000 -0.142003 0.713889 -0.685690 0.758747 0.580638
-0.195089 0.980786 1.000000 -0.142003 0.713889 0.685690 0.378458 0.580638
0.000000 1.000000 -1.000000 0.000000 0.727866 -0.685690 0.207867 0.756916
0.195090 0.980785 -1.000000 0.142003 0.713889 -0.685690 0.170592 0.756916
-0.195089 0.980786 -1.000000 -0.142003 0.713889 -0.685690 0.244425 0.749644
-0.382682 0.923880 -1.000000 -0.278542 0.672475 -0.685690 0.278862 0.735380
0.382683 0.923880 -1.000000 0.278542 0.672475 -0.685690 0.134033 0.749644
-0.555569 0.831470 -1.000000 -0.404370 0.605213 -0.685690 0.309855 0.714671
0.555570 0.831470 -1.000000 0.404370 0.605213 -0.685690 0.099596 0.735380
-0.707106 0.707108 -1.000000 -0.514664 0.514695 -0.685690 0.336213 0.688313
0.707107 0.707107 -1.000000 0.514664 0.514664 -0.685690 0.068603 0.714671
-0.831469 0.555571 -1.000000 -0.605213 0.404370 -0.685690 0.356921 0.657321
0.831470 0.555570 -1.000000 0.605213 0.404370 -0.685690 0.042245 0.688313
-0.923879 0.382684 -1.000000 -0.672475 0.278542 -0.685690 0.371186 0.622883
0.923880 0.382683 -1.000000 0.672475 0.278542 -0.685690 0.021536 0.657321
-0.980785 0.195091 -1.000000 -0.713889 0.142003 -0.685690 0.378458 0.586324
0.980785 0.195090 -1.000000 0.713889 0.142003 -0.685690 0.007272 0.622883
-1.000000 0.000001 -1.000000 -0.727866 0.000000 -0.685690 0.378458 0.549050
1.000000 0.000000 -1.000000 0.727866 0.000000 -0.685690 0.000000 0.586325
-0.980785 -0.195089 -1.000000 -0.713889 -0.142003 -0.685690 0.371186 0.512491
0.980785 -0.195090 -1.000000 0.713889 -0.142003 -0.685690 0.000000 0.549050
-0.923880 -0.382683 -1.000000 -0.672475 -0.278542 -0.685690 0.356922 0.478053
0.923880 -0.382683 -1.000000 0.672475 -0.278542 -0.685690 0.007272 0.512491
-0.831470 -0.555570 -1.000000 -0.605213 -0.404370 -0.685690 0.336213 0.447061
0.831470 -0.555570 -1.000000 0.605213 -0.404370 -0.685690 0.021536 0.478054
-0.707107 -0.707106 -1.000000 -0.514664 -0.514664 -0.685690 0.309855 0.420703
0.707107 -0.707107 -1.000000 0.514664 -0.514664 -0.685690 0.042245 0.447061
-0.555571 -0.831469 -1.000000 -0.404370 -0.605213 -0.685690 0.278863 0.399994
0.555570 -0.831470 -1.000000 0.404370 -0.605213 -0.685690 0.068602 0.420703
-0.382684 -0.923879 -1.000000 -0.278542 -0.672475 -0.685690 0.244425 0.385730
0.382683 -0.923880 -1.000000 0.278542 -0.672475 -0.685690 0.099595 0.399994
-0.195091 -0.980785 -1.000000 -0.142003 -0.713889 -0.685690 0.207866 0.378458
0.195090 -0.980785 -1.000000 0.142003 -0.713889 -0.685690 0.134033 0.385730
-0.000000 -1.000000 -1.000000 0.000000 -0.727866 -0.685690 0.170592 0.378458
4 0 1 2 3
4 3 2 4 5
4 5 4 6 7
4 7 6 8 9
4 9 8 10 11
4 12 13 14 15
4 15 14 16 17
4 17 16 18 19
4 19 18 20 21
4 21 20 22 23
4 23 22 24 25
4 25 24 26 27
4 28 29 30 31
4 31 30 32 33
4 33 32 34 35
4 35 34 36 37
4 37 36 38 39
4 39 38 40 41
4 41 40 42 43
4 43 42 44 45
4 46 47 48 49
4 49 48 50 51
4 51 50 52 53
4 53 52 54 55
4 55 54 56 57
4 57 56 58 59
4 59 58 60 61
4 61 60 62 63
4 64 65 66 67
4 67 66 68 69
3 70 71 72
3 70 72 73
3 70 73 74
3 73 75 74
3 75 76 74
3 75 77 76
3 77 78 76
3 77 79 78
3 79 80 78
3 79 81 80
3 81 82 80
3 81 83 82
3 83 84 82
3 83 85 84
3 85 86 84
3 85 87 86
3 87 88 86
3 87 89 88
3 89 90 88
3 89 91 90
3 91 92 90
3 91 93 92
3 93 94 92
3 93 95 94
3 95 96 94
3 95 97 96
3 97 98 96
3 97 99 98
3 99 100 98
3 99 101 100
4 1 0 102 103
4 69 68 103 102
3 104 105 106
3 105 107 106
3 105 108 107
3 108 109 107
3 108 110 109
3 110 111 109
3 110 112 111
3 112 113 111
3 112 114 113
3 114 115 113
3 114 116 115
3 116 117 115
3 116 118 117
3 118 119 117
3 118 120 119
3 120 121 119
3 120 122 121
3 122 123 121
3 122 124 123
3 124 125 123
3 124 126 125
3 126 127 125
3 126 128 127
3 128 129 127
3 128 130 129
3 130 131 129
3 130 132 131
3 132 133 131
3 132 134 133
3 134 135 133
